<svg xmlns="http://www.w3.org/2000/svg" xmlns:xlink="http://www.w3.org/1999/xlink" xmlns:sketch="http://www.bohemiancoding.com/sketch/ns" width="36px" height="45px" viewBox="0 0 36 45" version="1.1">
  <g id="Page-1" stroke="none" stroke-width="1" fill="none" fill-rule="evenodd" sketch:type="MSPage">
    <g id="punto" sketch:type="MSLayerGroup">
      <g id="Page-1" sketch:type="MSShapeGroup">
        <g id="punto_logo-2">
          <ellipse id="Oval" fill="#FF0000" cx="18.0274286" cy="17.6275009" rx="6.02742858" ry="5.93918918" />
          <path d="M17.9794286,0.0810810812 C11.6022857,0.0810810812 5.86285714,3.18243244 2.81828572,8.65540543 L2.81828572,4.15252248e-15 L0.0205714286,4.15252248e-15 L0.0205714286,44.9391892 L2.81828572,44.9391892 L2.81828572,27.0608108 C5.94514286,32.1486486 11.6022857,35.4324324 17.9794286,35.4324324 C27.8742857,35.4324324 35.9177143,27.527027 35.9177143,17.7567568 C35.9177143,7.98648651 27.8948572,0.0810810812 17.9794286,0.0810810812 L17.9794286,0.0810810812 L17.9794286,0.0810810812 Z M17.9794286,32.6959459 C9.60685716,32.6959459 2.77714286,26.0067568 2.77714286,17.7567568 C2.77714286,9.50675675 9.60685716,2.81756757 17.9794286,2.81756757 C26.352,2.81756757 33.1405714,9.50675675 33.1405714,17.7567568 C33.1405714,26.0067568 26.352,32.6959459 17.9794286,32.6959459 L17.9794286,32.6959459 L17.9794286,32.6959459 Z" id="Shape" fill="#000000" />
        </g>
      </g>
    </g>
  </g>
</svg>